<?xml version="1.0" encoding="UTF-8" standalone="no"?>
<!DOCTYPE svg PUBLIC "-//W3C//DTD SVG 1.1//EN" "http://www.w3.org/Graphics/SVG/1.1/DTD/svg11.dtd">
<svg width="100%" height="100%" viewBox="0 0 300 300" version="1.1" xmlns="http://www.w3.org/2000/svg" xmlns:xlink="http://www.w3.org/1999/xlink" xml:space="preserve" xmlns:serif="http://www.serif.com/" style="fill-rule:evenodd;clip-rule:evenodd;stroke-linecap:round;stroke-linejoin:round;stroke-miterlimit:1.5;">
    <g transform="matrix(1,0,0,1,9.87075,39.5044)">
        <path d="M22.073,79.332C22.073,79.332 100.233,80.099 111.658,79.98C121.553,79.877 132.914,71.488 129.705,56.555C125.656,37.717 94.224,34.227 92.996,57.9" style="fill:none;stroke:rgb(171,0,0);stroke-width:9.32px;"/>
    </g>
    <g transform="matrix(1,0,0,1,137.798,68.239)">
        <path d="M-105.855,81.483C-105.855,81.483 100.233,80.099 111.658,79.98C121.553,79.877 132.914,71.488 129.705,56.555C125.656,37.717 94.224,34.227 92.996,57.9" style="fill:none;stroke:rgb(171,0,0);stroke-width:9.32px;"/>
    </g>
    <g transform="matrix(1.04936,0.0149579,0.0136063,-0.954538,41.7208,256.977)">
        <path d="M-10.335,78.639C-10.335,78.639 100.233,80.099 111.658,79.98C121.553,79.877 132.914,71.488 129.705,56.555C125.656,37.717 94.224,34.227 92.996,57.9" style="fill:none;stroke:rgb(171,0,0);stroke-width:9.29px;"/>
    </g>
</svg>
